<mxfile host="app.diagrams.net" modified="2021-08-19T10:10:54.803Z" agent="5.0 (Windows NT 10.0; Win64; x64) AppleWebKit/537.36 (KHTML, like Gecko) Chrome/92.0.4515.131 Safari/537.36" etag="64DtqiO_o8ymYygI9fTU" version="14.9.6" type="github">
  <diagram name="Page-1" id="e7e014a7-5840-1c2e-5031-d8a46d1fe8dd">
    <mxGraphModel dx="1422" dy="762" grid="1" gridSize="10" guides="1" tooltips="1" connect="1" arrows="1" fold="1" page="1" pageScale="1" pageWidth="1169" pageHeight="826" background="none" math="0" shadow="0">
      <root>
        <mxCell id="0" />
        <mxCell id="1" parent="0" />
        <mxCell id="2" value="PartnerWebsite" style="swimlane;whiteSpace=wrap" parent="1" vertex="1">
          <mxGeometry x="164.5" y="128" width="280" height="962" as="geometry" />
        </mxCell>
        <mxCell id="5" value="" style="ellipse;shape=startState;fillColor=#000000;strokeColor=#ff0000;" parent="2" vertex="1">
          <mxGeometry x="100" y="40" width="30" height="30" as="geometry" />
        </mxCell>
        <mxCell id="6" value="" style="edgeStyle=elbowEdgeStyle;elbow=horizontal;verticalAlign=bottom;endArrow=open;endSize=8;endFill=1;rounded=0" parent="2" source="5" target="7" edge="1">
          <mxGeometry x="100" y="40" as="geometry">
            <mxPoint x="115" y="110" as="targetPoint" />
          </mxGeometry>
        </mxCell>
        <mxCell id="7" value="load OpenPass &#xa;Script" style="" parent="2" vertex="1">
          <mxGeometry x="60" y="110" width="110" height="50" as="geometry" />
        </mxCell>
        <mxCell id="8" value="launch widget" style="" parent="2" vertex="1">
          <mxGeometry x="60" y="220" width="110" height="50" as="geometry" />
        </mxCell>
        <mxCell id="9" value="" style="endArrow=open;endFill=1;rounded=0" parent="2" source="7" target="8" edge="1">
          <mxGeometry relative="1" as="geometry" />
        </mxCell>
        <mxCell id="11" value="" style="endArrow=open;endFill=1;rounded=0" parent="2" source="8" edge="1">
          <mxGeometry relative="1" as="geometry">
            <mxPoint x="115" y="325" as="targetPoint" />
          </mxGeometry>
        </mxCell>
        <mxCell id="1_zBySilQ_4-TzGi14tD-41" value="has cookies" style="rhombus;fillColor=#ffffc0;" vertex="1" parent="2">
          <mxGeometry x="75" y="322" width="80" height="40" as="geometry" />
        </mxCell>
        <mxCell id="1_zBySilQ_4-TzGi14tD-49" value="user clicks action button" style="rounded=1;whiteSpace=wrap;html=1;" vertex="1" parent="2">
          <mxGeometry x="85.5" y="482" width="120" height="60" as="geometry" />
        </mxCell>
        <mxCell id="1_zBySilQ_4-TzGi14tD-67" style="edgeStyle=orthogonalEdgeStyle;rounded=0;orthogonalLoop=1;jettySize=auto;html=1;exitX=0.5;exitY=1;exitDx=0;exitDy=0;entryX=0.5;entryY=0;entryDx=0;entryDy=0;" edge="1" parent="2" source="1_zBySilQ_4-TzGi14tD-65" target="1_zBySilQ_4-TzGi14tD-66">
          <mxGeometry relative="1" as="geometry" />
        </mxCell>
        <mxCell id="1_zBySilQ_4-TzGi14tD-65" value="save cookies" style="whiteSpace=wrap;html=1;" vertex="1" parent="2">
          <mxGeometry x="80" y="682" width="120" height="60" as="geometry" />
        </mxCell>
        <mxCell id="1_zBySilQ_4-TzGi14tD-66" value="hide widget" style="whiteSpace=wrap;html=1;" vertex="1" parent="2">
          <mxGeometry x="80" y="762" width="120" height="60" as="geometry" />
        </mxCell>
        <mxCell id="1_zBySilQ_4-TzGi14tD-43" style="edgeStyle=orthogonalEdgeStyle;rounded=0;orthogonalLoop=1;jettySize=auto;html=1;exitX=0;exitY=0.5;exitDx=0;exitDy=0;entryX=0;entryY=0.5;entryDx=0;entryDy=0;" edge="1" parent="2" source="1_zBySilQ_4-TzGi14tD-41" target="1_zBySilQ_4-TzGi14tD-66">
          <mxGeometry relative="1" as="geometry">
            <mxPoint x="45.5" y="412" as="targetPoint" />
          </mxGeometry>
        </mxCell>
        <mxCell id="1_zBySilQ_4-TzGi14tD-47" value="show widget" style="whiteSpace=wrap;html=1;" vertex="1" parent="2">
          <mxGeometry x="80" y="392" width="120" height="60" as="geometry" />
        </mxCell>
        <mxCell id="1_zBySilQ_4-TzGi14tD-45" style="edgeStyle=orthogonalEdgeStyle;rounded=0;orthogonalLoop=1;jettySize=auto;html=1;exitX=0.5;exitY=1;exitDx=0;exitDy=0;entryX=0.571;entryY=-0.017;entryDx=0;entryDy=0;entryPerimeter=0;" edge="1" parent="2" source="1_zBySilQ_4-TzGi14tD-41" target="1_zBySilQ_4-TzGi14tD-47">
          <mxGeometry relative="1" as="geometry">
            <mxPoint x="115.5" y="402" as="targetPoint" />
          </mxGeometry>
        </mxCell>
        <mxCell id="1_zBySilQ_4-TzGi14tD-46" value="no" style="edgeLabel;html=1;align=center;verticalAlign=middle;resizable=0;points=[];" vertex="1" connectable="0" parent="1_zBySilQ_4-TzGi14tD-45">
          <mxGeometry x="0.0123" y="11" relative="1" as="geometry">
            <mxPoint x="12" y="11" as="offset" />
          </mxGeometry>
        </mxCell>
        <mxCell id="3" value="OpenPass" style="swimlane;whiteSpace=wrap" parent="1" vertex="1">
          <mxGeometry x="444.5" y="128" width="280" height="962" as="geometry" />
        </mxCell>
        <mxCell id="1_zBySilQ_4-TzGi14tD-51" value="launch app" style="whiteSpace=wrap;html=1;" vertex="1" parent="3">
          <mxGeometry x="85.5" y="72" width="120" height="48" as="geometry" />
        </mxCell>
        <mxCell id="1_zBySilQ_4-TzGi14tD-68" value="Check Email" style="whiteSpace=wrap;html=1;" vertex="1" parent="3">
          <mxGeometry x="85.5" y="160" width="120" height="60" as="geometry" />
        </mxCell>
        <mxCell id="1_zBySilQ_4-TzGi14tD-84" style="edgeStyle=orthogonalEdgeStyle;rounded=0;orthogonalLoop=1;jettySize=auto;html=1;exitX=0.75;exitY=0.5;exitDx=0;exitDy=0;exitPerimeter=0;entryX=0.5;entryY=0;entryDx=0;entryDy=0;" edge="1" parent="3" source="1_zBySilQ_4-TzGi14tD-82" target="1_zBySilQ_4-TzGi14tD-83">
          <mxGeometry relative="1" as="geometry" />
        </mxCell>
        <mxCell id="1_zBySilQ_4-TzGi14tD-82" value="" style="shape=line;html=1;strokeWidth=6;strokeColor=#ff0000;rotation=-180;" vertex="1" parent="3">
          <mxGeometry x="115.5" y="262" width="80" height="10" as="geometry" />
        </mxCell>
        <mxCell id="1_zBySilQ_4-TzGi14tD-81" style="edgeStyle=orthogonalEdgeStyle;rounded=0;orthogonalLoop=1;jettySize=auto;html=1;exitX=1;exitY=0.5;exitDx=0;exitDy=0;entryX=0.563;entryY=0.8;entryDx=0;entryDy=0;entryPerimeter=0;" edge="1" parent="3" source="1_zBySilQ_4-TzGi14tD-68" target="1_zBySilQ_4-TzGi14tD-82">
          <mxGeometry relative="1" as="geometry">
            <mxPoint x="225.5" y="190" as="targetPoint" />
          </mxGeometry>
        </mxCell>
        <mxCell id="1_zBySilQ_4-TzGi14tD-83" value="generate IFA token" style="whiteSpace=wrap;html=1;" vertex="1" parent="3">
          <mxGeometry x="45.5" y="302" width="120" height="60" as="geometry" />
        </mxCell>
        <mxCell id="1_zBySilQ_4-TzGi14tD-85" value="" style="shape=line;html=1;strokeWidth=6;strokeColor=#ff0000;rotation=-180;" vertex="1" parent="3">
          <mxGeometry x="100.5" y="412" width="80" height="10" as="geometry" />
        </mxCell>
        <mxCell id="1_zBySilQ_4-TzGi14tD-86" style="edgeStyle=orthogonalEdgeStyle;rounded=0;orthogonalLoop=1;jettySize=auto;html=1;exitX=0.5;exitY=1;exitDx=0;exitDy=0;entryX=0.75;entryY=0.5;entryDx=0;entryDy=0;entryPerimeter=0;" edge="1" parent="3" source="1_zBySilQ_4-TzGi14tD-83" target="1_zBySilQ_4-TzGi14tD-85">
          <mxGeometry relative="1" as="geometry" />
        </mxCell>
        <mxCell id="1_zBySilQ_4-TzGi14tD-88" value="send tokens trough&amp;nbsp;&lt;br&gt;post message" style="whiteSpace=wrap;html=1;" vertex="1" parent="3">
          <mxGeometry x="75.5" y="472" width="120" height="60" as="geometry" />
        </mxCell>
        <mxCell id="4" value="UID2Service" style="swimlane;whiteSpace=wrap;startSize=23;" parent="1" vertex="1">
          <mxGeometry x="724.5" y="128" width="280" height="962" as="geometry" />
        </mxCell>
        <mxCell id="1_zBySilQ_4-TzGi14tD-73" value="email exist" style="rhombus;whiteSpace=wrap;html=1;fillColor=#fff2cc;" vertex="1" parent="4">
          <mxGeometry x="55.5" y="150" width="80" height="80" as="geometry" />
        </mxCell>
        <mxCell id="1_zBySilQ_4-TzGi14tD-76" value="return token" style="whiteSpace=wrap;html=1;" vertex="1" parent="4">
          <mxGeometry x="65.5" y="372" width="120" height="60" as="geometry" />
        </mxCell>
        <mxCell id="1_zBySilQ_4-TzGi14tD-79" style="edgeStyle=orthogonalEdgeStyle;rounded=0;orthogonalLoop=1;jettySize=auto;html=1;exitX=0.5;exitY=1;exitDx=0;exitDy=0;entryX=1;entryY=0.5;entryDx=0;entryDy=0;" edge="1" parent="4" source="1_zBySilQ_4-TzGi14tD-78" target="1_zBySilQ_4-TzGi14tD-76">
          <mxGeometry relative="1" as="geometry" />
        </mxCell>
        <mxCell id="1_zBySilQ_4-TzGi14tD-78" value="save email and generate token" style="whiteSpace=wrap;html=1;" vertex="1" parent="4">
          <mxGeometry x="155.5" y="160" width="120" height="60" as="geometry" />
        </mxCell>
        <mxCell id="1_zBySilQ_4-TzGi14tD-74" style="edgeStyle=orthogonalEdgeStyle;rounded=0;orthogonalLoop=1;jettySize=auto;html=1;exitX=0.5;exitY=1;exitDx=0;exitDy=0;" edge="1" parent="4" source="1_zBySilQ_4-TzGi14tD-73" target="1_zBySilQ_4-TzGi14tD-76">
          <mxGeometry relative="1" as="geometry">
            <mxPoint x="95.5" y="282" as="targetPoint" />
          </mxGeometry>
        </mxCell>
        <mxCell id="1_zBySilQ_4-TzGi14tD-44" value="yes" style="text;html=1;align=center;verticalAlign=middle;resizable=0;points=[];autosize=1;strokeColor=none;" vertex="1" parent="1">
          <mxGeometry x="205" y="450" width="30" height="20" as="geometry" />
        </mxCell>
        <mxCell id="1_zBySilQ_4-TzGi14tD-48" style="edgeStyle=orthogonalEdgeStyle;rounded=0;orthogonalLoop=1;jettySize=auto;html=1;exitX=0.75;exitY=1;exitDx=0;exitDy=0;" edge="1" parent="1" source="1_zBySilQ_4-TzGi14tD-47">
          <mxGeometry relative="1" as="geometry">
            <mxPoint x="310" y="610" as="targetPoint" />
          </mxGeometry>
        </mxCell>
        <mxCell id="1_zBySilQ_4-TzGi14tD-52" style="edgeStyle=orthogonalEdgeStyle;rounded=0;orthogonalLoop=1;jettySize=auto;html=1;exitX=0.5;exitY=1;exitDx=0;exitDy=0;" edge="1" parent="1" source="1_zBySilQ_4-TzGi14tD-51">
          <mxGeometry relative="1" as="geometry">
            <mxPoint x="590" y="290" as="targetPoint" />
          </mxGeometry>
        </mxCell>
        <mxCell id="1_zBySilQ_4-TzGi14tD-61" style="edgeStyle=orthogonalEdgeStyle;rounded=0;orthogonalLoop=1;jettySize=auto;html=1;exitX=0.25;exitY=0.5;exitDx=0;exitDy=0;exitPerimeter=0;entryX=0;entryY=0.5;entryDx=0;entryDy=0;" edge="1" parent="1" source="1_zBySilQ_4-TzGi14tD-55" target="1_zBySilQ_4-TzGi14tD-51">
          <mxGeometry relative="1" as="geometry" />
        </mxCell>
        <mxCell id="1_zBySilQ_4-TzGi14tD-62" style="edgeStyle=orthogonalEdgeStyle;rounded=0;orthogonalLoop=1;jettySize=auto;html=1;exitX=0.75;exitY=0.5;exitDx=0;exitDy=0;exitPerimeter=0;" edge="1" parent="1" source="1_zBySilQ_4-TzGi14tD-55">
          <mxGeometry relative="1" as="geometry">
            <mxPoint x="300" y="720" as="targetPoint" />
            <Array as="points">
              <mxPoint x="410" y="690" />
              <mxPoint x="300" y="690" />
            </Array>
          </mxGeometry>
        </mxCell>
        <mxCell id="1_zBySilQ_4-TzGi14tD-55" value="" style="shape=line;html=1;strokeWidth=6;strokeColor=#ff0000;rotation=90;" vertex="1" parent="1">
          <mxGeometry x="370" y="650" width="80" height="10" as="geometry" />
        </mxCell>
        <mxCell id="1_zBySilQ_4-TzGi14tD-59" style="edgeStyle=orthogonalEdgeStyle;rounded=0;orthogonalLoop=1;jettySize=auto;html=1;exitX=1;exitY=0.5;exitDx=0;exitDy=0;" edge="1" parent="1" source="1_zBySilQ_4-TzGi14tD-49">
          <mxGeometry relative="1" as="geometry">
            <mxPoint x="408" y="655" as="targetPoint" />
          </mxGeometry>
        </mxCell>
        <mxCell id="1_zBySilQ_4-TzGi14tD-64" style="edgeStyle=orthogonalEdgeStyle;rounded=0;orthogonalLoop=1;jettySize=auto;html=1;exitX=0.5;exitY=1;exitDx=0;exitDy=0;" edge="1" parent="1" source="1_zBySilQ_4-TzGi14tD-63">
          <mxGeometry relative="1" as="geometry">
            <mxPoint x="310" y="810" as="targetPoint" />
          </mxGeometry>
        </mxCell>
        <mxCell id="1_zBySilQ_4-TzGi14tD-63" value="wait for &lt;br&gt;post message" style="whiteSpace=wrap;html=1;" vertex="1" parent="1">
          <mxGeometry x="250" y="720" width="120" height="60" as="geometry" />
        </mxCell>
        <mxCell id="1_zBySilQ_4-TzGi14tD-70" style="edgeStyle=orthogonalEdgeStyle;rounded=0;orthogonalLoop=1;jettySize=auto;html=1;exitX=0.25;exitY=0.5;exitDx=0;exitDy=0;exitPerimeter=0;" edge="1" parent="1" source="1_zBySilQ_4-TzGi14tD-82">
          <mxGeometry relative="1" as="geometry">
            <mxPoint x="780" y="318" as="targetPoint" />
            <mxPoint x="680" y="240" as="sourcePoint" />
          </mxGeometry>
        </mxCell>
        <mxCell id="1_zBySilQ_4-TzGi14tD-71" value="request uid2token" style="edgeLabel;html=1;align=center;verticalAlign=middle;resizable=0;points=[];" vertex="1" connectable="0" parent="1_zBySilQ_4-TzGi14tD-70">
          <mxGeometry x="-0.3538" y="9" relative="1" as="geometry">
            <mxPoint as="offset" />
          </mxGeometry>
        </mxCell>
        <mxCell id="1_zBySilQ_4-TzGi14tD-75" value="yes" style="text;html=1;align=center;verticalAlign=middle;resizable=0;points=[];autosize=1;strokeColor=none;" vertex="1" parent="1">
          <mxGeometry x="815" y="370" width="30" height="20" as="geometry" />
        </mxCell>
        <mxCell id="1_zBySilQ_4-TzGi14tD-77" style="edgeStyle=orthogonalEdgeStyle;rounded=0;orthogonalLoop=1;jettySize=auto;html=1;exitX=1;exitY=0.5;exitDx=0;exitDy=0;" edge="1" parent="1" source="1_zBySilQ_4-TzGi14tD-73">
          <mxGeometry relative="1" as="geometry">
            <mxPoint x="880" y="318" as="targetPoint" />
          </mxGeometry>
        </mxCell>
        <mxCell id="1_zBySilQ_4-TzGi14tD-80" style="edgeStyle=orthogonalEdgeStyle;rounded=0;orthogonalLoop=1;jettySize=auto;html=1;entryX=0.25;entryY=0.5;entryDx=0;entryDy=0;entryPerimeter=0;" edge="1" parent="1" target="1_zBySilQ_4-TzGi14tD-85">
          <mxGeometry relative="1" as="geometry">
            <mxPoint x="680" y="420" as="targetPoint" />
            <mxPoint x="790" y="520" as="sourcePoint" />
            <Array as="points">
              <mxPoint x="790" y="528" />
              <mxPoint x="605" y="528" />
            </Array>
          </mxGeometry>
        </mxCell>
        <mxCell id="1_zBySilQ_4-TzGi14tD-87" style="edgeStyle=orthogonalEdgeStyle;rounded=0;orthogonalLoop=1;jettySize=auto;html=1;exitX=0.25;exitY=0.5;exitDx=0;exitDy=0;exitPerimeter=0;" edge="1" parent="1" source="1_zBySilQ_4-TzGi14tD-85">
          <mxGeometry relative="1" as="geometry">
            <mxPoint x="580" y="600" as="targetPoint" />
          </mxGeometry>
        </mxCell>
        <mxCell id="1_zBySilQ_4-TzGi14tD-89" style="edgeStyle=orthogonalEdgeStyle;rounded=0;orthogonalLoop=1;jettySize=auto;html=1;exitX=0;exitY=0.75;exitDx=0;exitDy=0;entryX=1;entryY=0.5;entryDx=0;entryDy=0;" edge="1" parent="1" source="1_zBySilQ_4-TzGi14tD-88" target="1_zBySilQ_4-TzGi14tD-63">
          <mxGeometry relative="1" as="geometry">
            <Array as="points">
              <mxPoint x="480" y="645" />
              <mxPoint x="480" y="750" />
            </Array>
          </mxGeometry>
        </mxCell>
        <mxCell id="1_zBySilQ_4-TzGi14tD-90" style="edgeStyle=orthogonalEdgeStyle;rounded=0;orthogonalLoop=1;jettySize=auto;html=1;exitX=0.5;exitY=1;exitDx=0;exitDy=0;" edge="1" parent="1" source="1_zBySilQ_4-TzGi14tD-66" target="1_zBySilQ_4-TzGi14tD-91">
          <mxGeometry relative="1" as="geometry">
            <mxPoint x="305" y="990" as="targetPoint" />
          </mxGeometry>
        </mxCell>
        <mxCell id="1_zBySilQ_4-TzGi14tD-91" value="" style="ellipse;html=1;shape=endState;fillColor=#000000;strokeColor=#ff0000;" vertex="1" parent="1">
          <mxGeometry x="290" y="975" width="30" height="30" as="geometry" />
        </mxCell>
      </root>
    </mxGraphModel>
  </diagram>
</mxfile>
